<?xml version="1.0" encoding="utf-8"?>

<!DOCTYPE svg PUBLIC "-//W3C//DTD SVG 1.1//EN" "http://www.w3.org/Graphics/SVG/1.1/DTD/svg11.dtd">
<svg version="1.1" id="Layer_1" xmlns="http://www.w3.org/2000/svg" xmlns:xlink="http://www.w3.org/1999/xlink" x="0px" y="0px"
	 viewBox="0 0 2592 671" enable-background="new 0 0 2592 671" xml:space="preserve">
<path d="M2585.99,435.52c-1.4299,1.64-2.8301,3.3-4.02,5.1c-2.29,3.28-3.0701,7.52-5.9399,10.39c-1.8301,1.91-4.6899,1.43-7.02,1.78
	c-0.76,0.94-1.3999,1.93-2.1699,2.81c-3.5601,0.64-7.0601-0.58-10.5701-0.82c-2.01,1.92-4.1101-0.49-1.7-2.02l0.3999-0.51
	c-1.96,0.17-3.8999,0.33-5.8,0.64c-0.4399,0.18-1.2998,0.55-1.73,0.74c0.8801,0.82,1.8,1.65,2.75,2.49
	c-1.48,2.91-2.79,5.89-3.9399,8.94c-0.9399-0.58-1.8999-1.16-2.77-1.72c-0.5-0.3-1.51-0.9-2.01-1.2
	c0.4199-1.79,0.8801-3.59,1.6001-5.3c1.8098-1.17,3.48-2.61,4.1599-4.76c-1.0701,0.32-2.1099,0.65-3.1299,0.9901
	c0.0298-0.72,0.0898-2.15,0.1199-2.86c1.1899-0.52,2.3801-1.04,3.6301-1.56c0.0698-0.44,0.2-1.33,0.27-1.77l0.0999-0.63
	c1.1301-0.57,2.3301-0.65,3.6101-0.24c2.1699,0.55,4.3599,1.15,6.5898,1.62c0.46,0.04,1.3701,0.11,1.8201,0.15
	c0.7-1.2,1.3899-2.4,2.1301-3.6c-1.2002,0.61-2.3601,1.23-3.4902,1.84c0.5601-1.0699,1.1802-2.1299,1.8101-3.19
	c-1.5999-1.72-2.8298-4.06-5.46-4.1c-0.3999,1.27-0.76,2.55-1.1099,3.83c-1.26,0.02-2.4902,0.07-3.7102,0.02l-1.4299-0.67
	c0.3901-1.06,0.8201-2.11,1.29-3.16c-2.01-3.59-2.9199-7.62-2.4299-11.72c-0.54,0.1-1.6301,0.29-2.1802,0.39l-0.2,0.3
	c-0.04-0.06-0.0999-0.18-0.1399-0.24c-0.54-0.95-1.0701-1.89-1.5701-2.81l-0.73-1.2c-0.54,0.23-1.6201,0.7-2.1699,0.93
	c-0.1501-0.36-0.4702-1.1-0.6301-1.47c-2.1699,0.31-4.3101,0.75-6.3699,1.4c-1.6401-0.33-3.24-0.66-4.8-0.99
	c-0.6201,0.5-1.8501,1.51-2.47,2.01c-1.8201,0.72-3.6902,1.26-5.53,1.8c0.0701-2.2599,0.5798-4.5099,3.01-5.28
	c0.5-3.37,0.3899-6.79,0.1899-10.17c-0.1799-0.19-0.5601-0.57-0.75-0.76c-1.21,0.3-2.3899,0.63-3.53,0.97
	c-1.0601-0.78-2.1099-1.56-3.0999-2.33c0.8799-1.1,1.7698-2.2,2.72-3.28c-0.1101-0.2-0.3101-0.59-0.4202-0.79
	c-1.9299-1.05-3.96-1.84-5.8799-2.82c-0.46,2.92-4.1101,0.24-1.55-1.09c0.27-0.22,0.8-0.68,1.0701-0.9
	c-0.1702-0.59-0.51-1.77-0.6702-2.36c-0.5,0.26-1.49,0.77-1.99,1.03c-0.4399-2.86-3.21-1.67-5.0898-1.66
	c0.3298-0.75,0.6899-1.5,1.0698-2.25c1.26-2.88,1.04-6.08,1.4602-9.13c-1.54-0.3-3.03-0.58-4.5-0.89
	c-1.3601-0.31-2.8601-0.77-4.0901-1.19c-0.03-0.58,0-1.15,0.0801-1.71l0.23-0.98c-1.3801-1.24-2.73-2.47-3.9102-3.86
	c-1.95,3.09-3.9099-1.3-1.1299-2.34c-1.53-1.4-3.52-2.03-5.48-2.41c-0.1899,0.6299-0.5801,1.9-0.78,2.53
	c-0.6001,0.76-1.1399,1.54-1.6399,2.32c-0.3301-1.64-0.6001-3.28-0.8601-4.92c-2.1399,3.58-4.3301-2.34-0.6201-1.75
	c-0.7-1.16-1.3899-2.3-2.0598-3.43c-2.5901-0.47-5.1101-1.34-7.0901-3.09c-0.52,0.23-0.99,0.47-1.4199,0.71
	c-0.3501-0.38-1.05-1.15-1.3901-1.54c-0.9299,0.3-1.8098,0.61-2.6699,0.92c-0.3899-1.55-0.6899-3.1-1.1001-4.6201l-0.3699-1.05
	c0.4399-0.41,1.3101-1.22,1.75-1.62c-0.1501-0.17-0.4399-0.5-0.5901-0.67c-0.54,0.02-1.6099,0.04-2.1399,0.06
	c-0.2-0.71-0.5801-2.13-0.77-2.84c-0.78,1.44-1.53,2.88-2.24,4.33c-0.8-0.59-1.6401-1.2-2.3601-1.79
	c-0.73,0.01-1.4099,0.04-2.05,0.08c-1.5198,0.13-3.0198,0.42-4.4199,0.9c-3.5,0.69-4.71,4.59-7.8201,5.96
	c0.3701-2.64,0.8701-5.26,1.3501-7.89c-1.3201,1.21-2.6101,2.45-3.8701,3.69c-2.0698-1.26-4.5398-2.35-6.47-0.27
	c-1.5999,2.39-3.23-0.5-2.28-2.22c-0.4199,0.1-1.2598,0.31-1.6799,0.41c-2.8298,2.22-5.72-1.64-8.8298-0.76
	c0.0398,1.77,0.0999,3.55,0.2,5.34c-0.78-0.58-1.54-1.15-2.25-1.72c-0.0701-0.84-0.2-2.53-0.27-3.3799
	c-2.1201,0.96-3.6702,4.95-6.1101,2.58c1.02-0.73,2.0701-1.46,3.1501-2.19c-2.6101,0.04-4.78,1.16-6.1401,3.38
	c-2.1699-0.26-4.26-0.74-6.3999-0.77c-2.27,2.97-5.4102,4.8-8.8,6.2c0.29,2.64-1.5,4.42-3.47,5.81c-1.3501,0.05-2.7,0.08-3.98,0.08
	c-2.28-0.16-4.48-0.76-6.6301-1.34c-0.77,3.1299-2.1099,6.04-3.6599,8.84c-1.53,2.55-0.6599,5.58-0.1101,8.29
	c1.0601,0.86,2.2102,1.7,3.3401,2.56c-1.9299,0.1801-3.8501,0.32-5.72,0.44c1.0901,0.42,2.21,0.83,3.3799,1.21
	c-0.1099,0.34-0.3298,1.04-0.4399,1.39c-2.6499,2-2.1599,5.3-1.8999,8.2c-1.0901-1.02-2.1501-2.03-3.2-3.02
	c-2.29,2.6-5.53,3.21-8.8201,3.07c1.55,1.32,3.45,2.03,5.51,2.21c-0.72,0.7-1.4202,1.41-2.0701,2.13
	c0.3101,1.01,0.6599,2.02,1.03,3.04c-1.1201,0.32-2.21,0.66-3.28,0.99c0,2.65,0.01,5.29,0.0601,7.95
	c-0.53-0.08-1.5901-0.24-2.1101-0.31c-1.1799,0.32-2.3,0.79-3.3398,1.34c0.1299,0.43,0.3799,1.29,0.5,1.72
	c-0.6201,0.13-1.8701,0.38-2.49,0.51c-0.3501,0.2-1.04,0.59-1.3901,0.79l-0.5898,0.32c-2.6501,0.65-5.4602,0.82-7.8401,2.19
	c-2.3801,1.29-4.25,3.3-6.5801,4.62c-1.3699-0.25-2.6799-0.67-3.95-1.05c0.1299,1.07,0.29,2.15,0.48,3.23
	c-0.5701-0.06-1.72-0.17-2.29-0.23c-0.4299-1.34-0.8499-2.67-1.21-4c-4.6199-0.65-9.26-1.25-13.9199-0.91
	c-0.3,1.5-0.5601,3.02-0.8301,4.53c-2.97,1.04-3.3799,4.15-3.98,6.81c-1.6001-2.23-3.04-4.56-4.26-7
	c-3.8,1.04-7.7,3.15-11.6799,1.85c-1.02-1.73-2.1201-3.4-3.29-5.01c-2.01,1.42-4.3301,2.25-6.74,2.6
	c-1.03-1.19-2.0701-2.36-3.0701-3.52c-2.45,1.41-4.9099,2.76-7.3799,4.08c-1.9402-0.95-3.8801-1.87-5.8101-2.76
	c-2.72,1.41-5.71,0.91-8.6001,0.94c-1.98,1.17-3.79,2.57-5.78,3.69c-0.74,1.46-1.45,2.93-2.1499,4.4
	c-3.4199,1.97-5.78,5.19-8.3799,8.06c-0.8101,1.3-1.6101,2.59-2.4001,3.88c-2.3999,0.4901-4.75,1.26-6.4199,3.1
	c-2.4102-0.29-4.8-0.61-7.1602-0.92c-0.3699-1.25-0.6899-2.4901-0.99-3.73c-1.97-0.12-3.9199-0.2-5.8499-0.18
	c-0.72-0.56-1.4001-1.11-2.05-1.66c-3.01,1.94-6.8799,2.43-10.01,0.5099c-2.2-1.5699-4.6699-0.4399-6.8999,0.32
	c-0.5701-2.47,0.02-5.65-2.24-7.36c-1.8501,0.09-2.0601,1.97-2.6602,3.28c-1.47-0.37-2.95-0.75-4.3699-1.12
	c-4.21,3.09-6.0801,8-8.9202,12.18c-1.0698-0.4-2.1199-0.79-3.1399-1.18c-1.8701,0.68-3.72,1.34-5.55,1.98
	c-0.6199,2.59-0.8799,5.25-0.8699,7.92c-1.47,1.88-2.9402,3.75-4.4102,5.61c-2.9199,0.36-6.47,0.38-7.5598,3.69
	c-0.3201,1.54-0.1702,3.21-0.8401,4.66c-5.6001,2.74-11.9199,3.47-18.01,4.42c0.3201-1.58,0.6899-3.15,1.05-4.71
	c-1.8701-0.68-3.73-1.4-5.5601-2.11c-0.1101,0-0.3301-0.01-0.4399-0.01c-0.7,2.36-2.4399,4.06-4.1802,5.66
	c-1.1099-0.12-2.1699-0.22-3.21-0.31c-1.79,0.57-3.5898,1.1-5.3599,1.63c0.27-1.38,0.5698-2.75,0.8899-4.12
	c-2.6199-0.94-5.3899-1.71-7.3999-3.71l-0.2-1.31c0.3599-0.38,1.0898-1.16,1.45-1.55c-1.0601,0.08-2.0801,0.15-3.0701,0.22h-0.3599
	c-0.6201-1.12-1.0701-2.3-1.6602-3.37c0.0801,0.7,0.24,2.09,0.3101,2.79c0.03,0.22,0.0901,0.65,0.1199,0.8701
	c-1.1599,1.79-3.0198,2.81-4.9299,3.56c0.01-0.94,0.02-2.83,0.03-3.77c-0.8601-0.12-2.5701-0.35-3.4299-0.46
	c-2.04,1.18-3.8501,2.67-5.3801,4.44c-3.2,0.05-6.3499-0.52-9.3999-1.36c-0.1599,0.55-0.48,1.65-0.6401,2.2
	c-0.1399,0.57-0.4199,1.71-0.5598,2.28c-3.74,0.07-7.3501-0.91-10.8201-2.2c-2.78,2.21-5.9299,3.87-9.1599,5.3
	c-0.7102-0.7-1.4001-1.38-2.0701-2.05c-2.73,0.31-4.9299,1.9-6.8301,3.74c-2.45-1.09-4.76-2.47-7.1199-3.71
	c-3.6702-0.02-7.27-0.65-10.8701-1.16c-2.8699-0.44-4.75,2.15-6.5499,3.9c-1.2001,0.03-2.37,0.06-3.52,0.1
	c-1.84,1.29-3.66,2.6-5.41,3.98c-3.83,0.77-6.65-2.39-10.3199-2.35c-2.8201-0.04-4.35-3.0601-6.9301-3.8
	c0.14,0.98,0.41,2.94,0.54,3.91c-0.3301-0.21-1.01-0.63-1.34-0.85c-2.3,1.84-5.04,2.46-7.6901,1.01c-0.54-1.02-1.1-2.02-1.6799-2.98
	c-1.7301-0.51-2.89,0.68-3.9401,1.77c-2.3199,0.4-4.62,0.78-6.91,1.18c-1.6599-1.67-3.21-3.47-5.1-4.86
	c-2.58-1.48-5.7-1.43-8.38-2.58c-1.84-1.46-3.3199-3.4-5.58-4.21c-0.61,0.79-1.2001,1.59-1.76,2.39c0.0599,0.83,0.16,1.67,0.28,2.51
	c-1.9301,0.3-3.8501,0.61-5.7301,0.96c-1.97,1.76-4.5399,1.98-7.0499,1.78c-0.4401,1.04-0.86,2.08-1.26,3.13
	c-0.39-0.16-1.17-0.47-1.5601-0.63c-4.99-2.14-10.4299-0.76-15.6399-1.42c-0.5-1.16-0.9801-2.3-1.4301-3.45
	c-1.21,0.61-2.39,1.23-3.54,1.87l-0.1,0.49c-5.62-1.01-11.1899,0.41-16.71,1.28c-0.66-4.73-1.6801-9.46-1.29-14.25
	c-1.5499-0.02-3.09-0.03-4.59-0.01c-0.1901,3.15,0.4199,6.26,1.15,9.31c0.5599,3.6,2.6899,9.04-1.3501,11.27
	c-0.7999-1.55-1.5499-3.1-2.2999-4.64c-2.72,2.46-6.12,3.92-9.73,4.4c-0.27-0.63-0.8201-1.9-1.1001-2.53
	c-1.12-0.44-2.22-0.87-3.2999-1.3c0.36-1.84,1.52-3.2401,3.01-4.35c0.0399-0.41,0.13-0.82,0.25-1.22c-0.72-0.07-2.17-0.23-2.89-0.31
	c-1.59-0.2-3.14-0.47-4.6801-0.7c-0.7,1.61-0.5499,3.96-2.2,4.98c-3.16,0.33-6.1-1.23-9.02-2.15
	c0.23-13.23-0.2999-26.46-0.3099-39.69c-1.29-13.34-0.39-26.77-1.6101-40.1201c-0.25-7.83-0.47-15.67-0.49-23.5099
	c-1.87-12.61,0.04-25.45-2.22-38.04c0.54-9.14-0.84-18.26-0.52-27.39c4.3101-0.21,8.5801,0.41,12.8501,0.93
	c10.5299-0.11,20.98,1.45,31.5099,1.61c5.76,0.44,11.55,0.48,17.3301,0.86c0.5599-0.64,1.14-1.29,1.72-1.95
	c0.62-0.8,1.26-1.59,1.9301-2.38c-0.78-8.0099-2.03-15.97-3.0801-23.94c-7.23-0.85-14.52-0.91-21.6899-2.1
	c-5-0.27-10.03,0.01-14.9501-1.02c-4.73,0.05-9.47,0.12-14.1499-0.53c-4.02-0.59-8.1901,0.01-12.0701-1.33
	c-0.35-0.1-1.0499-0.31-1.4-0.42c0.04-5.19-0.2725-15.54-0.2725-15.54s-0.7075-10.02-0.7175-14.45l-12.37-1.255l-18.1625-1.045
	c0,0-0.2675,20.33-0.6274,30.47c-5.92,0.52-11.9,0.24-17.7201-0.88c-11.4299,0.67-22.77-1.15-34.1699-0.99
	c-4.6001-0.07-9.1801-0.22-13.75-0.27c-0.75,4.2-1.2101,8.44-1.38,12.7c-0.51,5.57-2.38,11.69,0.1699,16.98
	c7.63,0.05,15.28,0.1,22.89,0.86c8.88,0.35,17.78,0.24,26.65,0.77c5.71,0.95,11.51,0.65,17.28,0.76c0.39,2.49,0.58,5,0.59,7.53
	c0.11,30.3199-0.4399,60.65-0.36,90.98c-0.4301,23.09,0.55,46.23-1.15,69.29c-0.03,0.35-0.1,1.06-0.13,1.41
	c-0.08,0.67-0.25,1.99-0.34,2.65c-1.6801-0.31-3.26-1.02-4.6-2c-0.6901-0.44-1.37-0.88-1.99-1.32c-0.7101,0.57-1.4,1.14-2.0701,1.71
	c-0.5599,0.23-1.6799,0.69-2.25,0.92c-0.7999-1.65-1.6699-3.29-2.99-4.56c-0.77-0.11-2.3-0.33-3.0599-0.43
	c0-0.63-0.01-1.89-0.01-2.51c-2.0601-0.94-4.04-1.96-6.0901-2.84c-0.23,1.37-0.4299,2.74-0.6,4.12
	c0.36,0.47,1.0801,1.39,1.4301,1.85c0.99,1,0.4199,3.12-0.86,3.59c-1.52-0.45-1.26-2.6-0.5801-3.64c-2.75-0.22-5.26,0.83-7.5,2.29
	c-2.22-1.5099-4.64-2.34-6.9-0.42c-0.9099,0.42-1.7999,0.83-2.6699,1.24c1.41,0.87,2.7999,1.8,4.1799,2.77
	c-1.8999,0.8-3.73,1.65-5.51,2.64c-0.6699,0.03-2,0.07-2.6699,0.09c-1.05-2.45-2.09-4.96-3.9-6.96c-0.41-0.25-1.24-0.75-1.66-1
	c-0.45-0.26-0.86-0.5-1.26-0.74c-6.21,0.49-12.2699-1.16-18.24-2.4901c-1.5299,0.4-2.87-0.47-3.5299-1.78
	c-1.14-0.67-2.3501-1.26-3.4801-1.85c-1.1699,1.4-2.2899,2.81-3.5399,4.13c-2.4,1.79-5.2001,3.02-8.13,3.6
	c-0.23,0.03-0.6901,0.09-0.92,0.12c-0.51-1.14-0.95-2.29-1.38-3.43c-1.1-1.53-3.86-2.79-2.7999-5.01c1.4399-1.39,3.1-2.52,4.7-3.75
	l-1.08-0.55c-2.62-0.86-5.1901-1.89-7.4401-3.46c-0.28-0.18-0.8199-0.53-1.1-0.71c-0.33,1.44-0.61,2.89-0.89,4.33
	c0.22,2.19,0.1899,4.4,0,6.59c-1.1801-0.3-2.34-0.57-3.5-0.81c0.09,1.52,0.28,3.06,0.36,4.6c0.51,0.39,1.53,1.18,2.03,1.58
	c-1.3-0.43-2.51-0.82-3.74-1.27c-1.02-0.38-2.02-0.77-2.99-1.15c0.02-1.2,0.0499-2.4,0.12-3.59c-0.89-0.36-1.77-0.72-2.63-1.06
	c-0.5601,0.95-1.1,1.9-1.62,2.87c0.36,0.54,1.09,1.63,1.45,2.18c-1.3199,1.2-2.5699,2.48-4.03,3.48
	c-3.2799-0.5699-6.3999-1.77-9.6599-2.34c-2.99-0.29-5.98-0.37-8.9401-0.68c1.2001-0.31,2.4301-0.58,3.6901-0.82
	c0.59-0.57,1.2-1.13,1.84-1.68c-1.8101-0.95-3.62-1.87-5.25-3.05c-1.05-2.03-2.05-4.08-3.3101-5.97c0.62-0.97,1.3101-1.87,2.01-2.8
	c-1.62,0.01-3.22,0.12-4.8099,0.05c-0.92,1.16-1.78,2.33-2.66,3.49c-0.92-0.43-1.8099-0.86-2.6799-1.28
	c-0.2101-1.16-0.41-2.32-0.6101-3.47c-0.1399-0.35-0.4399-1.05-0.58-1.4c-0.34,0.46-1.01,1.38-1.35,1.83
	c-1.87,0.93-3.75,1.89-5.77,2.37c0.4,0.44,1.2,1.32,1.6,1.76c3.11,0.77,0.05,4.16-0.4099,0.77c-0.16,1.1-0.2101,2.21-0.2201,3.33
	c-0.4399,0.14-1.33,0.43-1.77,0.57c0.75,1.14,1.53,2.29,2.3301,3.4399c-1.4501,0.33-2.8201,0.66-4.1901,1.1
	c-1.5699,0.62-3.1599,1.14-4.7999,1.39l-0.4501-1.3c-0.21-0.58-0.63-1.75-0.84-2.34c-0.59-0.03-1.75-0.11-2.33-0.14
	c-0.64,0.09-1.9301,0.29-2.5801,0.38c-0.76-1.61-1.51-3.22-2.25-4.82c-1.76-0.13-3.48-0.25-5.1899-0.36c-0.15-0.8-0.46-2.4-0.61-3.2
	c-0.7201,1.07-1.4301,2.15-2.12,3.23c-1.02,2.59-1.7001,5.3-2.4601,7.97c-0.9399-0.12-1.87-0.24-2.7699-0.33
	c-0.4,0.01-1.1901,0.03-1.5901,0.04c0.05,2.22,0.11,4.46,0.1901,6.69c1.7999-0.78,3.59-1.55,5.4299-2.27
	c-1.14,2.06-2.59,3.97-4.61,5.23c0.16,1.87,0.38,3.75,0.61,5.64c-2.12,1.09-4.37,1.88-6.6899,2.32c-2.6-2.42-5.09-5.21-8.55-6.36
	c-6.6-2.1201-12.16-7.29-19.4299-7.15c-2.76,1.56-5.13,3.69-7.78,5.4c-4.99-4.46-11.4501-8.7-11.89-16.09
	c-0.26-3.01-0.17-6.03-0.14-9.04c-0.1-3.21-0.0599-6.43,0.14-9.63c0-4.07-0.67-8.07-0.9399-12.11
	c-0.2201-4.0699-0.2101-8.15-0.3301-12.21c-1.28-7.56-0.46-15.28-0.9199-22.9c0.5299-12.53-1.75-25.03-0.8201-37.54
	c-0.1899-8.06-0.45-16.13-0.22-24.19c-1.27-3.95-0.4501-8.17-0.9-12.23c-1.08-9.85-0.86-19.79-0.84-29.6801
	c-0.0901-2.11-0.24-4.21-0.4-6.3c-1.02-4.27-0.6-8.69-0.84-13.03c-0.17-7.99-0.4401-15.97-0.6801-23.96c-0.01-2.74-1.41-5.26-1.38-8
	c0.64-9.67,0.21-19.38,0-29.06c-0.84-2.46-0.7-5.07-0.4399-7.61c3.75,0.02,7.5399-0.13,11.26,0.6
	c6.5599,1.29,13.3199-0.24,19.88,1.18c8.63,0.67,17.2899,1.04,25.9399,1.41c8.1801,1.54,16.58,1.06,24.88,1.03
	c1.22-1.9,2.51-3.75,4.03-5.44c0.1-11.18-2.63-22.1299-3.51-33.25c-6.26-0.77-12.53-1.24-18.8101-1.7
	c-8.0599-1.69-16.2899-1.27-24.4299-2.01c-4.89-1.51-10.0601-0.25-15.03-1.13c-4.04-0.69-8.15-0.85-12.22-0.53
	c1.2-0.27-8.5901-0.35-14.49-2.0099c0.27-6.9-0.26-13.75-0.76-20.61c0.45-0.4-1.0901-13.48-0.8301-19.6
	c-6.2799-0.69-12.63-0.45-18.87-1.47c-6.96-0.62-15.6733-1.2566-22.4133-1.91c-0.24,1.46-1.4266,20.98-0.3467,29.13
	c0.39,4.17-0.5,8.32-0.5699,12.49c-2.8-0.05-5.58-0.24-8.3199-0.67c-7.38-0.84-14.8401-0.14-22.2101-1
	c-6.8199-0.57-13.71,0.08-20.46-1.23c-11.66-0.2-23.33-0.16-34.99-0.4c-1.99,7.1-1.09,14.62-2.79,21.71
	c-0.2,1.53-0.38,3.05-0.45,4.59c0.0499,4.65-0.05,9.31,0.36,13.96c7.77,0.28,15.54,0.77,23.3099,1.15
	c7.29,1.24,14.7001,0.39,22.05,0.77c7.9-0.11,15.72,1.26,23.63,1.09c6.85-0.45,13.76-0.35,20.6,0.28
	c0.4401,1.35,0.51,2.78,0.5801,4.2c0.11,50.32-0.3401,100.66-0.5701,150.97c-0.6,11.68,0.04,23.39-0.91,35.06
	c-0.38,7.13,0.5701,14.32-0.5199,21.42c-0.16,6.56-0.14,13.1299-0.16,19.69c0,7.62-0.38,15.25-0.03,22.86
	c0.41,6.68,1,15.15-4.83,19.78c-1.29,0.91-3.1901,2.66-4.65,1.17c-2.47-1.85-4.84-4.1801-8.1901-3.8701
	c-3.3999,0.39-5.38-2.43-6.58-5.14c-1.78-1.76-3.59-3.47-5.45-5.12c-2.79-2.54-6.65-2.71-10.2101-2.87
	c-0.0699-2.82-0.02-5.63,0.16-8.4301l-0.4399-0.46c-1.2101-0.55-2.42-1.1-3.5901-1.64c-0.4,0.34-1.21,1.01-1.62,1.35
	c-1.76-1.45-3.48-3.29-2.39-5.72c-0.1499-0.56-0.45-1.67-0.6-2.23c-1,0.77-1.9199,1.61-2.77,2.5099c0.13,2.34,0.0701,4.7-0.14,7.04
	c-1.8899,0.07-4-0.34-5.47,1.11c-0.61-0.16-1.2-0.32-1.77-0.46c-0.22-1.62-0.4299-3.22-0.63-4.8199
	c-1.7899,3.6-3.8899,7.03-6.85,9.79c-0.5-0.62-0.98-1.23-1.4399-1.84c0.35-1.27,0.71-2.54,1.11-3.8
	c0.48-0.28,1.4399-0.83,1.9199-1.1c-0.5099-0.33-1.5299-1-2.0399-1.34c0.34-1.27,0.6799-2.53,1.0499-3.79
	c0.51,0.24,1.53,0.72,2.04,0.95c-0.1-0.26-0.3-0.79-0.41-1.05c-0.1899-0.5-0.59-1.5099-0.7899-2.0099c0.24-2.23,0.62-4.44,1.01-6.64
	c-2.03-0.57-4.17-1.31-6.27-0.67c-1.8,1.14-3.67,2.16-5.7101,2.77c0.0801-0.82,0.2301-2.47,0.3101-3.29
	c-0.59,0.12-1.77,0.36-2.36,0.48c-0.16,2.98-0.4,5.97-1.1901,8.86c-0.58,0.69-1.13,1.4-1.6499,2.11
	c-0.3201,0.44-0.9701,1.3-1.29,1.74c0.22-4.07,0.83-8.09,1.42-12.11c-1.53,0.22-3.05,0.41-4.55,0.5699
	c-1.05,5.17-0.66,10.54-2.1901,15.6201c-0.7699,0.78-1.5099,1.56-2.23,2.36c-1.1899-0.03-2.36-0.05-3.51-0.07
	c0.3501,0.63,1.03,1.9,1.38,2.54c-0.39,0.17-1.1699,0.5-1.5599,0.67c0.22-3.13-1.8201-5.21-4.26-6.7401
	c-0.16-0.66-0.48-1.96-0.64-2.61c-0.78-0.12-1.54-0.23-2.28-0.33c-0.28,0.4901-0.85,1.48-1.13,1.97
	c-1.49,2.01-3.37,3.76-4.2999,6.13c-1.0601-3.44-1.1801-7.06,0.1799-10.44c-0.46-0.77-0.88-1.56-1.28-2.34
	c0.1101-0.8,0.3201-2.42,0.4301-3.23c-0.95-0.52-1.9-1-2.83-1.48c-1.6801,4.67-2.9301,9.51-5.12,13.98l-0.13,0.02
	c-0.5901-0.02-1.77-0.05-2.37-0.07c-0.1901-0.69-0.5701-2.07-0.77-2.76c-0.1801,0.93-0.39,1.86-0.5701,2.81
	c-0.5699,2.59-1.2799,5.15-2.0699,7.69c-1.25-1.07-2.37-2.29-3.35-3.57c-0.87,0.53-1.74,1.07-2.5701,1.62
	c0.37,1.45,0.78,2.92,1.1801,4.38c-1.1-0.47-2.1901-0.95-3.26-1.39c0.36-0.16,1.09-0.49,1.46-0.66c-1.59-1.35-3.03-2.83-4.39-4.38
	c-0.61-0.67-1.21-1.32-1.7799-1.98c-1.1801,2.54-3.78,0.71-3.0601-1.51c-0.26-1.99-0.62-3.97-0.73-5.96
	c0.0599-0.84,0.17-2.51,0.23-3.35c0.98,0.41,1.97,0.84,2.97,1.29c0.12,0.32,0.3501,0.97,0.4701,1.29
	c0.4399,1.26,0.9099,2.53,1.3999,3.8c0.9401,0.03,1.88,0.06,2.86,0.11l-0.21-0.08c-3.7999-0.11-3.49-4.01-3.4199-6.73
	c-1.8701-0.76-3.6801-1.67-5.4801-2.53c-0.39,0.52-0.76,1.05-1.1,1.59c-0.63,1.64-1.0699,3.34-1.6799,4.99
	c-1.04-0.27-1.9301-0.81-2.6801-1.61c-2.03,0.14-4.04,0.27-6.03,0.42c-0.0699,0.66-0.2,1.96-0.27,2.62
	c-0.71-0.07-2.13-0.21-2.84-0.28l-0.91-1.02c-0.3899,1.18-0.7599,2.37-1.1399,3.55c0.4099,1.7,0.9199,3.37,1.45,5.04
	c-1.39,0.49-2.75,0.99-4.1,1.48c-1.05,2.13-1.97,4.33-2.6901,6.61c-1.39,0.83-2.74,1.71-4.0699,2.61
	c0.02,0.72,0.0599,2.17,0.08,2.89c-0.6699,0.02-2,0.05-2.6699,0.07c0.0099-0.87,0.0299-2.6,0.0399-3.47
	c-0.62-0.16-1.85-0.48-2.47-0.64c1.34,1.58-0.8,4.69-2.29,2.46c-0.3999-0.39-1.1899-1.17-1.58-1.56
	c-0.55,0.05-1.65,0.16-2.1901,0.21c-1.3799,0.55-2.73,1.1-4.0699,1.65c0.45-1.96,0.95-3.91,1.49-5.84
	c-1.64,0.52-3.25,1.02-4.89,1.45c-2.48,0.54-5.03,0.56-7.53,0.3l-0.1899-0.03c-0.72-0.1-2.15-0.3-2.87-0.39
	c-0.47-1.44-0.3-2.79,1.0599-3.66c-0.1499-0.37-0.46-1.1-0.61-1.47c0.1001-0.37,0.3101-1.09,0.41-1.46l0.28-0.95
	c-0.7001-2.05-1.34-4.11-1.86-6.2c-1.01,1.56-1.04,4.79-3.55,4.2l-0.03,0.41c0.5,1.64,0.9,3.3,1.42,4.95
	c-0.7,0.09-2.08,0.28-2.78,0.37c-0.0399-0.71-0.14-2.14-0.1899-2.85c-0.8,0.21-1.5801,0.42-2.35,0.64
	c-1.0801-1.09-2.2101-2.11-3.3601-3.08c0.16,3.28-1.74,6.21-5.2999,5.76c-0.36-1.05-0.7001-2.09-1.04-3.13
	c-1.36-1.29-2.8199-2.47-4.22-3.67c-0.02,0.6-0.05,1.8-0.0601,2.41c-0.5699,0.02-1.7,0.07-2.2699,0.1
	c0.1-0.36,0.3099-1.08,0.4099-1.44c-1.5699-0.22-3.11-0.53-4.63-0.89c-0.6599,1.69-1.25,3.57-2.99,4.46
	c0.0801-2.8,0.6-5.55,1.37-8.23c0.12-0.6,0.27-1.2,0.4301-1.79c-0.8201-0.09-2.4401-0.26-3.26-0.35c0,0.15-0.01,0.44-0.02,0.58
	c-0.01,0.29-0.02,0.85-0.03,1.13c1.28,3.15-0.9199,5.86-2.3999,8.45c0.0099-0.91,0.0199-2.74,0.0299-3.66
	c-0.4399-0.1-1.3099-0.31-1.75-0.41c-0.6599,0.54-1.3099,1.08-1.95,1.63l-0.26-0.8c-0.58-1.57-1.24-3.12-1.8199-4.66
	c-1.0901-0.02-2.15-0.09-3.2001-0.15c-0.38,0.28-1.12,0.85-1.5,1.13c-1.22,0.04-2.4299,0.08-3.62,0.12
	c-0.52,1.56-1.04,3.12-1.5699,4.68c-0.9601-1.43-2.3501-3.23-0.4601-4.63l-1.08-0.02c-0.15-0.3799-0.45-1.14-0.59-1.52
	c-0.8-2.38-1.42-4.79-2.12-7.18c-1.63-0.27-2.8401-1.31-3.88-2.48l-0.2101-0.21c0-0.97,0.01-2.93,0.01-3.91
	c0.9601-0.32,1.9401-0.63,2.9301-0.94c-0.1801-1.67-0.3201-3.33-0.47-5c-2.3301,0.01-4.64,0.08-6.9401,0.23
	c-0.36,0.29-1.09,0.87-1.45,1.16c0.02,4.26,0.3099,8.5,0.61,12.75c-1.4301,0.04-2.84,0.1-4.24,0.1l-0.47-1.02
	c-1.1001,0.59-2.1901,1.18-3.26,1.76c-1.79,0.96-3.76,1.45-5.76,1.54c0.46-1.04,0.9399-2.07,1.52-3.05l-0.4301-1.07
	c-0.84,0-2.52,0.01-3.36,0.02c-0.12-1.34,0.02-2.67,0.53-3.91c-0.2101-0.14-0.64-0.43-0.8501-0.57
	c-0.23,0.62-0.6699,1.84-0.8899,2.46c-1.4801,0-2.9601,0-4.4,0.05l-0.05,0.76c1.47,1.87,3.28,3.49,4.55,5.53
	c0.1699,1.46-0.05,2.95-0.37,4.38c-1.78,0.28-3.5-0.62-5.17-0.96c0.5601,1.24,1.12,2.49,1.7,3.74c-0.87-0.59-1.73-1.18-2.5699-1.76
	c-0.67,0.03-2.01,0.09-2.6801,0.12c-1.09-0.82-2.1799-1.63-3.2699-2.38c-1.77-0.77-3.5901-1.4-5.42-1.93
	c-1.22-0.26-2.4301-0.51-3.62-0.76c0.0699-0.72,0.21-2.17,0.28-2.89c0.01-0.83,0.0299-2.48,0.0399-3.3
	c-1.08,0.15-2.1499,0.3-3.1899,0.47c-0.41-0.29-1.23-0.86-1.63-1.14c-1.02,0.05-2.01,0.11-2.99,0.17
	c-0.4401,1.08-0.85,2.16-1.26,3.24c-2.17-0.67-4.26-1.67-6.53-1.84c-4.13-0.31-6.9299,3.35-10.62,4.55
	c-0.54-0.28-1.62-0.83-2.16-1.1c-0.1699-1.36-0.3199-2.7-0.4299-4.05c-0.4-2.05-0.85-4.09-1.24-6.1299
	c-1.75,1.66-3.39,3.42-4.9301,5.2599c-2.41-0.52-4.84-0.97-7.27-1.21l-0.26,0.08c-0.6499,0.82-1.2799,1.65-1.8999,2.48
	c0.24,0.15,0.71,0.45,0.95,0.59c1.02,0.52,2.0601,1.04,3.13,1.55c1.8199,0.95,3.53,2.11,5.23,3.3c0.26,1.78,0.5601,3.56,0.91,5.34
	c0.47,1.81,1.0599,3.65,0.77,5.56c-3.42,1.73-6.12,4.65-9.87,5.76c0.21-3.73,0.26-7.49-0.55-11.16c-0.88-0.67-1.74-1.33-2.59-1.99
	c-1.16,2.28-2.24,4.59-3.3201,6.91c-1.64-0.09-3.26-0.16-4.86-0.27l-0.71-0.07c-0.66-5.17-0.4301-10.4-0.8-15.6
	c-0.73-10.36,0.37-20.77-0.89-31.1c-0.5399-9.57-0.49-19.17-0.9199-28.75c-1.05-11.32-0.64-22.7-1.17-34.04
	c-0.6799-8.07-0.11-16.17-0.96-24.23c-0.71-6.51-0.25-13.03,0.27-19.53c-0.63-7.3-0.8401-14.6299-1.1901-21.95
	c9.14,0.23,18.24,1.26,27.39,1.45c11.3,0.89,22.61,1.88,33.95,1.38c1.7101-2.14,4.63-4.13,3.7001-7.27
	c-1.11-7.04-1.85-14.13-2.9301-21.16c-6.7999-1.02-13.7799-0.61-20.49-2.16c-4.4299-0.25-8.89,0.19-13.27-0.56
	c-4.88-0.96-9.8899-0.27-14.7799-1.14c-4.9701-0.84-10.04-0.49-15.02-1.13c-0.3101-3.36-0.4501-6.73-0.53-10.1
	c0.6-0.26-1.39-15.9-1.02-20.22c-4.23-0.22-8.46-0.25-12.65-0.78c-5.6899-0.74-11.6-1.3567-17.1-1.64c0,0-1.7666,20.61-2.0399,30.58
	c-5.4401,0.4-10.9801,0.19-16.3301-0.91c-5.72,0.22-11.45-0.02-17.1699-0.16c-10.4801-1.25-21.05-0.67-31.5801-1.14
	c-1.14,4.79-1.14,9.71-1.6799,14.58c-0.91,4.82-0.9701,9.76-0.42,14.63c3.08,0.51,6.2,0.64,9.3199,0.55
	c3.74-0.18,7.3401,1.01,11.0601,1.18c15.77,0.49,31.53,1.2,47.29,1.95c-0.1101,26.02,0.24,52.06-0.42,78.07
	c-0.12,8.46,0.08,16.93-0.1801,25.39c0.9,12.34,0.01,24.7-0.2,37.06c-0.03,4.07,0.05,8.14-0.05,12.21
	c-0.1,3.37-0.24,6.73-0.34,10.11c-4.26-4.69-9.91-8.05-16.28-8.75c-3.0299-0.2-5.98-0.93-8.1699-3.14
	c-1.28-0.13-2.54-0.2401-3.78-0.35c4.59,6.13,12.66,6.93,18.71,10.98c2.87,1.89,5.8401,3.89,7.66,6.9c1.78,2.26,1.29,5.28,1.53,7.96
	c-2.1901-0.13-4.37-0.27-6.54-0.42c0.0701-1.6899,0.1801-3.37,0.29-5.05c-0.85,0.93-1.7001,1.86-2.48,2.84
	c-0.13,0.42-0.39,1.24-0.52,1.65c-6.62-1.25-12.67-4.61-19.4401-5.15c-0.7999-3.32-1.59-6.64-2.5699-9.91
	c-0.75-0.3-2.24-0.9-2.98-1.2c1.3099-1.9301,3.22-3.2401,5.37-4.11c-1.78,0.17-3.55,0.31-5.3,0.46c-1.47,3.7-6.4,3.89-7.72,7.62
	c1.47,1.52,2.5599,3.33,2.46,5.54c-3.36-1.0699-6.6899-2.45-10.27-2.47c-4.4099-0.35-9.0199,0.88-13.25-0.8
	c-2.89-1-5.9299-1.16-8.8999-1.69c-0.52,0.6-1.02,1.19-1.51,1.8c0.21,3.2,0.3199,6.42,0.3999,9.63
	c-1.2699-0.61-2.5399-1.25-3.85-1.71c-2.39,0.1-2.6,3.38-4.64,3.99c-2.38-3.39,0.0601-7.21,0.8501-10.68
	c-2.6901,0.22-5.3601,0.49-8.03,0.72c-3.6801-2.77-8.38-3.39-12.3201-5.64c-3.86-2.1-8.47-3.57-12.7699-1.98
	c-4.67,0.93-10.26,3.92-14.4801,0.31c-1.4099,0.09-2.8099,0.17-4.2,0.17c-0.5,0.92-0.98,1.86-1.45,2.8
	c-1.92-0.55-3.8301-1.37-5.8401-1.3c-1.9399,0.39-3.6,1.52-5.3199,2.43c-4.15-0.3-8.43-0.95-12.44,0.5c-3.38,1.24-6.89-0.36-10.34,0
	c-6.23,1.18-12.06-2.28-18.3-1.71c-0.42,1.12-0.82,2.25-1.21,3.39c-0.26-0.67-0.78-2-1.05-2.66c-1.81,0.27-3.61,0.54-5.41,0.81
	c-6.3,0.67-12.52,3.81-18.88,1.71c-6.1-2.45-12.43-4.57-18.99-5.25c-8.5,0.0099-17.39,3.7-25.63,0.1299
	c-1.66-0.08-3.33-0.09-4.97-0.09l-0.11-1.3c-0.06-0.51-0.17-1.52-0.23-2.03c-0.69,0.8-1.41,1.58-2.08,2.39
	c-2.21-0.61-4.52-1.11-6.8-0.6c-5.02,1.16-10.2,0.8-15.3,0.8199c-7.7-0.18-15.4,0.07-23.08-0.48c-7.07,0.46-14.09,1.69-21.12,2.53
	c-8-0.45-15.88,1.14-23.81,1.81c-8.46-0.07-16.86,1.05-25.31,1.06c-2.81,0.38-3.33-3.07-4.13-5.02c-1.47-0.75-2.96-1.53-4.4-2.3
	c1.37,2.53,3.53,4.51,5.12,6.89c-4.44,1.58-9.23,1.36-13.74,2.64c-3.03,0.83-6.09,1.59-9.18,2.11c-0.08-0.72-0.24-2.16-0.32-2.88
	c-0.62-0.03-1.86-0.08-2.48-0.11c-0.08,0.5-0.24,1.5-0.32,2c-0.33,0.21-0.98,0.61-1.31,0.81c-5.35-0.16-10.86,0.32-16.07-1.16
	c-3.96,1.14-7.93,2.28-11.91,3.36c-0.79-1.2-1.58-2.4-2.36-3.59c-7.54-0.81-15.11-1.41-22.54-2.93c-7.31,1.93-14.75-0.51-22.11,0.71
	c-7.11,1.03-14.3,0.39-21.43,0.04c-6.54,0.3799-13.13-0.21-19.6,0.99c-6.59,0.72-13.09,2.49-19.76,2.36
	c-3.18-0.13-6.27,0.79-9.42,0.9c-2.95-0.4301-5.85-1.59-8.87-1.01c-3.6,0.8-7.21,1.71-10.91,1.79c-3.22,0.31-5.81-2.15-8.95-2.38
	c-6.4-1.4-12.97,1.89-19.26-0.28c-1.29-0.44-1.95,1.35-2.9,1.93c-0.87-0.47-1.74-0.94-2.59-1.4c-0.39,0.33-1.17,1.01-1.57,1.34
	c-1.44-0.9-2.81-2.14-4.58-2.25c-5.02-0.48-10.05-1.16-15.1-0.92c-6.06,0.4301-12.26-0.29-18.14,1.6
	c-5.44,1.82-11.33,0.64-16.76,2.51c-7.81,2.51-15.97,3.86-24.18,3.79c-3.64-0.29-6.43,2.68-9.97,2.88
	c-5.8,0.62-11.45-1.37-17.21-1.68c-4.23-0.62-8.39,0.49-12.53,1.1c-3,0.54-5.65-1.31-8.29-2.42c-0.12-1.62-0.23-3.24-0.33-4.86
	c-1.62,0.1-3.25,0.12-4.8199,0.48c-1.26,0.99-1.98,2.47-2.87,3.76c-4.89,1.37-9.08-2.66-13.97-2.09c-4.4,0.61-8.83-0.49-12.63-2.72
	c-3.03-2.05-3.86-6.04-6.61-8.31c-4.24-2.24-9.26-1.86-13.84-1.23c-3.94,0.4301-7.1,3.09-10.86,4.07c-2.84,0.77-5.81,0.77-8.72,0.97
	c-0.14,0.59-0.42,1.77-0.56,2.36c-3.6801-0.87-7.46-1.6-10.75-3.55c-5.1-2.9-11.27-1.81-16.73-3.45c-3.38-1.16-6.55-3.17-10.22-3.22
	c-6.41-0.67-12.91,1.44-19.17-0.69c-6.2,1.33-12.62,1.2-18.92,0.85c-6.05-0.78-12.09,1.39-18.11,0.11c-3.74-0.79-7.28,0.9-10.9,1.47
	c-4.97,0.9-10.19,0.79-14.85,2.98c-4.63,2.13-9.37,4.19-14.54,4.48c-4.09,0.01-7.3,2.79-11.1899,3.57
	c0.03-6.53,1.64-14.17-3.29-19.43c-4.96-0.45-10.57,1.31-13.02,5.97c-0.28,5.24,1.25,10.28,2.02,15.4c-3.03,1.7-6.16,3.62-9.78,3.31
	c-1.4-1.26-3.04-2.14-4.84-2.64c-0.14,0.85-0.42,2.56-0.56,3.41c-4.55-1-9.3-1.28-13.87-0.18c-3.57,0.88-7.3,1.39-10.92,0.39
	c-0.64,0.43-1.29,0.86-1.93,1.3c-1.48-0.38-2.9901-0.66-4.4-1.24c-1.47-5.17-5.29-9.94-4.07-15.55c0.04-0.81,0.12-2.43,0.16-3.24
	c-3.46,0.54-5.42,3.3-7.48,5.8c-2.76,0.88-5.9,0.42-8.74,1.3101c-3.61,1.08-7.56,0.18-11.01,1.92c-2.9,1.34-6,2.31-9.23,1.78
	c-3.57-4.73-6.89-9.65-10.24-14.53c-2.09-2.88-3.09-7.04-6.87-8.2c-0.05,1.82-0.08,3.66-0.09,5.49c-4.74-2.81-10.12-4.14-15.37-5.6
	c-0.34-0.92-0.69-1.84-1.03-2.74c-1.37,0.53-2.75,1.05-4.12,1.58c-9.65-0.03-19.01,2.43-28.51,3.57
	c-6.1299-1.73-12.12-4.1-17.99-6.59c-1.69,1.13-1.66,3.41,0.22,4.28c6.68,4.13,13.14,8.89,20.8,11.06c-1.6,0.27-3.21,0.55-4.81,0.84
	c-2.15,2.5-4.74,4.56-7.46,6.41c-1.54-0.31-3.08-0.62-4.62-0.92c-0.57,1.39-1.14,2.78-1.72,4.18c-1.48-1.39-2.96-2.79-4.44-4.19
	c0.4-1.69,0.8-3.39,1.2-5.07c-1.73,0.25-3.46,0.52-5.19,0.78c-1.36-1.73-2.93-3.31-4.99-4.16c0.01,2.26,0.36,4.54,0.07,6.79
	c-0.8,2.08-3.26,1.64-5.02,1.94c-0.19-1.96-0.38-3.9-0.58-5.85c-1.22-0.59-2.43-1.17-3.63-1.79V671h2592V435.82
	C2589.97,435.76,2587.96,435.72,2585.99,435.52z M2521.1699,419.11C2524.1201,417.54,2521.3401,422.41,2521.1699,419.11
	L2521.1699,419.11z M15.81,463.28c-2.95-2.84-4.17-7.53-2.48-11.34C15.83,455.21,16.72,459.23,15.81,463.28z M48.44,458.07
	c-1.07-4.78-5.55-8.03-10.2-8.85c1.75-1.22,3.51-2.44,5.27-3.64c1.33,1.07,2.8,1.9301,4.32,2.7c0.24,2.41,0.68,4.84,2.24,6.78
	C49.53,456.06,48.98,457.06,48.44,458.07z M60.68,439.17c-0.81,0.13-1.61,0.27-2.42,0.41c-2.23-2.25-5.48-2.7-8.01-4.46
	c3.88-0.64,7.84-0.9,11.74-0.21C61.55,436.33,61.11,437.74,60.68,439.17z M83.76,444.19c-1.19-0.03-2.37-0.05-3.56-0.06
	c-0.66,1.04-1.32,2.09-1.97,3.15c-4.1,0.42-7.5099-1.85-10.63-4.17c0.97-2.23,1.88-4.49,2.72-6.77c5.11,0.18,9.14,3.61,13.32,6.11
	c2.22,0.98,2.02,3.87,2.66,5.85C84.59,447.68,84.49,445.6,83.76,444.19z M201.03,454.95c-1.63,0.79-3.26,1.58-4.88,2.4
	c0.42-2.84-0.77-5.58-0.71-8.4c0.09-3.63,0.58-7.3,2.03-10.66c1.59,0.16,3.18,0.32,4.78,0.49
	C200.95,444.08,201.33,449.55,201.03,454.95z M373.04,452c-0.32-0.97-0.62-1.93-0.9301-2.89c0.3101-0.62,0.92-1.86,1.23-2.49
	c2.52,3.65,7.04,3.07,10.83,4.14c0.17,0.58,0.5,1.75,0.66,2.33C380.88,453,376.87,453.07,373.04,452z M1125.9,453.31
	c0.4399-2.21,0.97-4.4,1.62-6.56c2.49,1.53,2.22,4.65,2.49,7.18C1128.62,453.72,1127.25,453.52,1125.9,453.31z M1211.75,468.14
	c-1.24-0.4901-2.45-0.9901-3.66-1.48c-1.2899-0.07-2.5699-0.13-3.83-0.19c0.3099-1.06,0.6-2.13,1.02-3.16
	c2.0599-0.86,4.33-0.45,6.5-0.35C1211.76,464.68,1211.75,466.41,1211.75,468.14z M1248.25,452.66c-2.0699,0.08-4.11,0.1-6.15,0.1
	c-0.08-1.9901,0.17-3.97,0.72-5.88c2.9801,0.02,6.91,0.23,8.28,3.43C1250.03,450.97,1249.08,451.75,1248.25,452.66z M1262.8,466.46
	c0.1799-0.73,0.5499-2.2,0.73-2.93c-0.38-1.85-1.38-4.25,1.62-3.86C1264.8199,462.02,1265.45,465.24,1262.8,466.46z M1265,458.1
	c-1.52-0.41-1.51-2.68-0.75-3.74C1266.1801,453.48,1266.98,457.74,1265,458.1z M1273.75,469.87c-1.39,0.37-1.95-0.15-1.6801-1.54
	C1273.42,467.95,1273.98,468.47,1273.75,469.87z M1270,461.82c-0.77-2.5,2.27-1.67,3.76-2.1c0.35,0.55,1.03,1.64,1.38,2.19
	C1273.55,463.16,1271.41,463.54,1270,461.82z M1290.99,453.71c0.22,0.4901,0.66,1.47,0.88,1.97c-1.72,0.77-3.4301,1.53-5.15,2.27
	C1286.9301,455.57,1288.85,454.27,1290.99,453.71z M1288.3,467.87c-1.8601-2.76,2.13-3.52,3.98-4.16
	C1292.2,465.81,1290.53,468.01,1288.3,467.87z M1285.86,465.49c-0.36-3.78,3.75-4.85,6.7001-4.9
	C1290.87,462.82,1288.5,464.56,1285.86,465.49z M1295.83,468.61c-1.3999-0.06-1.33-2.49-0.5399-3.28
	C1296.67,465.37,1296.61,467.82,1295.83,468.61z M1295.88,454.11c-1.73-0.14-1-2.81,0.39-2.94
	C1297.91,451.29,1297.21,453.99,1295.88,454.11z M1356.8101,466.67c-1.3401-0.27-1.55-1-0.64-2.21
	C1357.47,464.71,1357.6801,465.45,1356.8101,466.67z M1372.4301,471.22c1.2-0.91,1.95-0.71,2.24,0.6
	C1373.4399,472.71,1372.6899,472.51,1372.4301,471.22z M1399.8,472.89c-1.54,1.0699-2.78-1.7401-1.65-2.75
	C1399.67,469.08,1400.91,471.85,1399.8,472.89z M1407.79,472.16c-0.88-1.33-2.2101-2.08-3.5701-2.74c-0.09-0.48-0.26-1.43-0.35-1.91
	c1.1801,0.72,2.39,1.46,3.6,2.2c0.98,0.19,1.98,0.42,2.99,0.67l1.5,0.84C1410.55,471.56,1409.1801,471.87,1407.79,472.16z
	 M1413.73,469.86c-0.2999-1.62-0.64-3.23-0.9299-4.83c0.5399-0.02,1.63-0.05,2.1799-0.07c0.2001,1.67,0.39,3.34,0.64,5.02
	C1415.15,469.95,1414.2,469.89,1413.73,469.86z M1415.74,457.21c-1.16,2.2-2.16,4.6801-4.15,6.28c-2.21,0.24-4.4199-0.07-6.62,0.24
	c0.3301-4.49,2.8101-8.47,2.92-13c1.28,0.05,2.58,0.1,3.89,0.16c1.7899,1.67,4.01,2.78,5.88,4.3799c0.22,1.58,0.24,3.2,0.37,4.81
	C1417.26,459.1,1416.52,458.14,1415.74,457.21z M1423.03,463.16c-1.3101-0.33-1.97-1.1-1.99-2.31
	C1422.49,460.77,1423.15,461.54,1423.03,463.16z M1426.6899,465.25c-0.3899-0.16-1.1699-0.48-1.5699-0.63
	C1423.96,462.06,1427.85,463.33,1426.6899,465.25z M1437.6801,475.83c-1.63,1.1801-2.64-1.79-1.38-2.6899
	C1437.88,471.96,1438.92,474.92,1437.6801,475.83z M1436.12,470.38c-0.13-1.83-0.1801-3.65-0.2-5.47c0.58,0,1.75,0.01,2.33,0.02
	C1437.79,466.82,1437.65,468.96,1436.12,470.38z M1442.22,471.33c0.22,0.4,0.65,1.21,0.86,1.6201c-0.5299,0.06-1.61,0.2-2.1499,0.27
	c0.6599,0.86,1.33,1.72,2.0299,2.59c-1.01,0.35-2.01,0.71-2.99,1.07c-0.26-4.04,0.1901-10.48,5.22-11.24
	C1445.34,468.03,1444.0699,469.96,1442.22,471.33z M1447.16,474.24c-1.4401-0.44-1.0801-2.56,0.08-3.09
	C1449.05,470.97,1449.37,474.96,1447.16,474.24z M1447.66,461.94c-3.3,0.6-0.67-3.6-0.49-5.22
	C1450.38,456.81,1448.65,460.34,1447.66,461.94z M1456.77,469.81c-1.5601,1.2-2.75-1.67-1.49-2.62
	C1456.83,465.94,1457.98,468.85,1456.77,469.81z M1460.1801,468.37c-1.29-1.73-1.2401-5.26,1.7599-4.38
	C1462.66,465.82,1461.39,467.19,1460.1801,468.37z M1469.85,472.33c-1.0399-0.42-2.02-0.9-2.95-1.4399c0.45-0.95,0.91-1.9,1.39-2.84
	c0.45,0.19,1.35,0.58,1.7999,0.77C1470.03,469.7,1469.91,471.46,1469.85,472.33z M1469.22,465.12
	C1472.22,463.56,1469.41,468.39,1469.22,465.12L1469.22,465.12z M1476.86,457.7c-1.6799,0.39-3.33,0.81-4.96,1.25
	c1.03-1.94,2.14-3.86,3.2899-5.7401c0.64-0.08,1.92-0.24,2.5601-0.3199C1477.76,454.54,1477.35,456.14,1476.86,457.7z
	 M1481.11,454.25c-1-2.87,0.7001-5.02,2.8201-6.71c0.0099-0.61,0.0399-1.83,0.0599-2.44c0.98-0.47,1.98-0.94,2.99-1.41
	C1485.33,447.29,1485.97,453.26,1481.11,454.25z M1487.86,470.91c-1.62,0.5-2.17-0.07-1.65-1.73
	C1487.79,468.67,1488.34,469.25,1487.86,470.91z M1498.28,458.28c1.62-0.79,3.0699,1.94,2.52,3.28
	C1499.26,461.96,1497.22,459.71,1498.28,458.28z M1501.22,471.77c-0.51-1.35-1.02-2.71-1.47-4.06c2.08-0.25,2.97,1.48,3.54,3.15
	C1502.77,471.09,1501.74,471.54,1501.22,471.77z M1512.95,467.66c-0.7799,0.2-2.35,0.61-3.1399,0.81
	c-1.05-1.59-1.65-3.36-0.9501-5.23c0.59,0.19,1.77,0.57,2.36,0.76c-0.4399-3.28-2.8099-7.5,0.72-9.87c0.1901,1.43,0.4,2.86,0.65,4.3
	C1515.09,461,1514.01,464.68,1512.95,467.66z M1675.3199,467.13c1.5901-1.32,2.64,1.69,1.38,2.6
	C1675.09,471,1674.03,468.02,1675.3199,467.13z M1678.59,479.75c-1.6899,1.24-2.4-1.95-1.2-2.79
	C1679.05,475.67,1679.77,478.91,1678.59,479.75z M1705.67,475.54c-0.8201-0.99-0.15-2.52,0.71-3.25
	C1707.89,472.55,1707.5,476.56,1705.67,475.54z M1707.71,467.85c-1.6499,1.19-2.6599-1.81-1.4099-2.73
	C1707.88,463.95,1708.86,466.92,1707.71,467.85z M1782.74,485.68c-1.37,1.09-2.75-1.33-1.54-2.27
	C1782.51,482.35,1783.87,484.74,1782.74,485.68z M1790.67,483.63c-1.62,0.59-3.24-0.71-4.77-1.04c0.6,0,1.7999,0,2.39,0.01
	c0.01-1.39,0.0499-2.77,0.1-4.14c1.48-0.18,2.96-0.36,4.48-0.5099c0.25,0.46,0.74,1.37,0.99,1.83
	C1792.83,481.1,1791.9,482.51,1790.67,483.63z M1828.97,482.17c-0.45-2.23,0.3101-4.8,3.12-4.3
	C1832.22,479.92,1831.3101,482.09,1828.97,482.17z M1837.96,481.86c-1.63,0.52-2.2-0.03-1.7-1.66
	C1837.85,479.66,1838.41,480.21,1837.96,481.86z M1931.84,483.79c-1.01,1.22-3.84-0.02-2.6-1.55
	C1930.1899,480.99,1933.03,482.24,1931.84,483.79z M2375.8201,411.6c-1.3401-0.24-1.5601-0.98-0.6602-2.22
	C2376.4299,409.6,2376.6499,410.34,2375.8201,411.6z M2376.75,407.9c-0.99,0.84-3.01-0.39-2.3899-1.61
	C2375.27,405.5,2377.3,406.67,2376.75,407.9z M2379.26,410.44c-0.1101-1.38-1.78-3.21-0.23-4.29c1,0.31,2.02,0.65,3.0601,1.05
	C2381.1599,408.3,2380.21,409.39,2379.26,410.44z M2388.01,378.56c-1.3301,0.71-2.79-1.47-1.75-2.47
	C2387.5901,375.27,2389.1201,377.52,2388.01,378.56z M2390.79,375.7c-1.53,1.11-2.8701-1.6-1.6001-2.59
	C2390.6899,371.93,2392.05,374.7,2390.79,375.7z M2394.0701,376.08c-1.29-0.6299-1.25-1.3199,0.1199-2.05
	C2395.4199,374.65,2395.3799,375.34,2394.0701,376.08z M2408.3301,361.17c0.6099-1.26,3.3999-0.35,1.8899,0.91
	C2409.4299,363.16,2406.9099,362.59,2408.3301,361.17z M2406.3401,364.18c1.3699-0.31,1.8699,0.23,1.49,1.62
	C2406.3999,366.1,2405.8999,365.56,2406.3401,364.18z M2399.8501,374.07c-1.3-0.62-1.23-1.27,0.21-1.96
	C2401.3101,372.72,2401.24,373.38,2399.8501,374.07z M2458.1101,360.23C2461.3999,360.45,2456.49,363.19,2458.1101,360.23
	L2458.1101,360.23z M2468.0901,366.93c-1.6802-0.07-1.4602-2.76,0.1599-2.71C2469.8799,364.23,2469.6399,367.01,2468.0901,366.93z
	 M2504.27,401.07c1.5801-0.54,2.1199,0.02,1.6001,1.67C2504.22,403.26,2503.6899,402.7,2504.27,401.07z M2506.74,406.04
	c-1.6699,0.49-2.23-0.07-1.6799-1.68C2506.6699,403.87,2507.23,404.43,2506.74,406.04z M2534.8501,441.75
	c-1.6501,0.49-2.1902-0.08-1.6101-1.7C2534.8301,439.54,2535.3701,440.11,2534.8501,441.75z M2534.1299,434.49
	c-1.23-1.47-2.48-2.91-3.47-4.51c0.22-1.93,2.1902-0.78,3.3101-0.54c1.95-0.83,4.0701-1.02,6.21-0.91
	c0.6902,1.92,1.7,3.55,4.1101,2.83c-0.6401,1.2-1.23,2.41-1.8901,3.6c-0.6099-0.94-1.1799-1.87-1.72-2.8
	C2538.96,434.07,2536.54,434.48,2534.1299,434.49z"/>
</svg>
